<?xml version='1.0' encoding='utf-8'?>
<svg xmlns="http://www.w3.org/2000/svg" clip-rule="evenodd" fill-rule="evenodd" stroke-linejoin="round" stroke-miterlimit="2" version="1.1" viewBox="0 0 2179 2081"> <g transform="translate(-877.11 -339.29)"> <g transform="scale(4.1667)"> <g transform="matrix(.56752 0 0 .67747 210.5 81.43)"> <rect width="921.26" height="737.01" fill="#434117"/> </g> <g transform="translate(399.51 221.15)"> <path d="m0-42.027c-35.525-9.236-69.242 9.636-87.163 31.696-2.752 3.387-5.167 6.993-7.356 10.726l-0.229 0.37c-0.681 1.177-1.315 2.378-1.934 3.587l10.484 4.884c0.692-1.253 1.408-2.501 2.167-3.74 0.247-0.404 0.504-0.805 0.759-1.208 1.257-1.98 2.576-3.945 4.034-5.876 4.906-6.497 19.341-25.607 44.263-30.329 17.003-3.221 35.011 0.992 50.036 9.15 0.699-0.327 1.413-0.629 2.14-0.905 3.406-1.29 7.085-2.028 10.942-2.028 1.39 0 2.751 0.115 4.091 0.295-9.492-7.744-20.661-13.613-32.234-16.622" fill="#fff" fill-rule="nonzero"/> </g> <g transform="translate(433.65 252.63)"> <path d="m0 163.23c-0.548-0.108-1.09-0.235-1.621-0.391-17.924-5.214-28.361-33.441-28.964-54.92-0.205-7.298 0.804-12.689 1.144-14.481 3.143-16.581 11.848-28.141 17.322-35.25 3.686-4.788 4.836-5.81 17.021-20.359 1.898-2.267 3.74-4.541 5.501-6.836 6.176-8.052 11.261-16.395 13.585-25.872 1.207-4.919 1.682-10.139 1.168-15.787-0.233-2.564-0.682-5.101-1.299-7.605-1.155 4.376-3.215 8.383-6.023 11.769-0.856 1.032-1.786 2.001-2.768 2.914-2.689 12.998-15.049 22.032-28.775 32.747-6.05 4.723-12.353 9.78-18.204 15.648-9.565 9.591-17.909 21.355-21.897 37.428-8.45 34.06 5.194 77.179 32.243 92.627 7.509 4.289 16.025 6.361 25.106 6.639l-3.539-18.271z" fill="#fff" fill-rule="nonzero"/> </g> <g transform="translate(546.61 431.85)"> <path d="m0-220.83-3.649 3.708c6.773 3.11 12.197 7.368 15.85 13.027 9.831 15.223 6.491 39.758-4.266 66.164-0.12 0.296-0.243 0.592-0.365 0.887-1.067 2.585-2.205 5.186-3.407 7.798-4.752 10.318-10.506 20.792-16.958 31-21.619 34.205-50.927 65.359-75.551 77.444l-0.063 20.8c40.706-9.609 86.34-47.572 107.17-91.246 1.732-3.632 9.321-19.565 13.893-39.502 0.989-4.312 1.83-8.81 2.447-13.413 2.979-22.258 0.563-46.938-17.433-64.577-5.099-4.998-11.074-9.001-17.666-12.09" fill="#fff" fill-rule="nonzero"/> </g> <g transform="matrix(.55765 -.83008 -.83008 -.55765 410.55 239.44)"> <path d="m-52.653-22.97c8.003-1.558 15.692-3.941 22.374-6.118-7.458 47.541-14.916 95.084-22.374 142.63-0.132-45.479-0.264-90.958-0.396-136.44 0.133-0.025 0.263-0.046 0.396-0.072" fill="#c2d838" fill-rule="nonzero"/> </g> <g transform="translate(440.52 338.42)"> <path d="m0-47.042c-0.121 0.146-0.234 0.285-0.357 0.432-1.811 2.161-3.665 4.32-5.531 6.491-3.798 4.421-7.723 8.992-11.356 13.698 13.027 8.807 26.056 17.614 39.083 26.421 0.182-12.205 0.363-24.409 0.547-36.614-7.463-3.476-14.924-6.952-22.386-10.428" fill="#c2d838" fill-rule="nonzero"/> </g> <g transform="translate(529.35 240.38)"> <path d="m0-35.093c-1.838 1.345-3.677 2.69-5.515 4.035-21.214 15.518-42.429 31.036-63.644 46.555-0.154 0.79-0.323 1.579-0.517 2.37-2.078 8.479-6.305 16.599-13.669 26.268 5.814 2.664 11.629 5.329 17.443 7.994 25.819-26.231 51.638-52.462 77.459-78.693 1.221-1.243 2.445-2.485 3.668-3.727 18.678-18.977 37.359-37.954 56.039-56.931-23.755 17.377-47.509 34.753-71.264 52.129" fill="#c2d838" fill-rule="nonzero"/> </g> <g transform="matrix(-.98549 -.16972 -.16972 .98549 630.1 280.4)"> <path d="m44.943 14.315c-0.015 0.344-0.046 0.675-0.058 1.022-0.147 3.897-0.12 7.936 0.058 12.023-14.572-14.749-29.146-29.499-43.719-44.247 14.573 10.4 29.145 20.801 43.719 31.202" fill="#c2d838" fill-rule="nonzero"/> </g> <g transform="translate(532.48 355.25)"> <path d="m0-22.485c6.145-9.722 11.526-19.492 16.035-29.072-28.538 13.76-57.075 27.522-85.614 41.283v39.346c22.483-16.081 44.97-32.163 67.455-48.245 0.714-1.098 1.422-2.202 2.124-3.312" fill="#c2d838" fill-rule="nonzero"/> </g> <g transform="translate(454.71 216.55)"> <path d="M0,67.217C2.915,68.249 5.829,69.281 8.744,70.313C33.152,45.843 57.562,21.374 81.971,-3.096C54.647,20.342 27.324,43.78 0,67.217" fill="#b2b935" fill-rule="nonzero"/> </g> <g transform="translate(413.54 248.7)"> <path d="m0 33.617c-25.32-12.083-50.64-24.167-75.96-36.25 23.942 12.961 47.883 25.922 71.825 38.883 1.379-0.878 2.757-1.755 4.135-2.633" fill="#b2b935" fill-rule="nonzero"/> </g> <g transform="translate(466.73 325.2)"> <path d="M0,21.229C19.724,12.028 39.446,2.826 59.171,-6.375C39.446,4.951 19.724,16.278 0,27.604L0,21.229Z" fill="#b2b935" fill-rule="nonzero"/> </g> <g transform="translate(418.16 524.76)"> <path d="m0-206.12c6.595 40.931 12.614 73.844 17.142 97.488 0.919 4.795 1.607 8.294 3.497 18.053 5.847 30.193 11.695 60.387 17.543 90.58 0.093-30.846 0.185-61.691 0.277-92.538 0.021-6.805 0.042-13.61 0.062-20.416l0.207-68.475c-12.91-8.231-25.819-16.462-38.728-24.692" fill="#c2d838" fill-rule="nonzero"/> </g> <g transform="translate(520.86 202.65)"> <path d="m0 6.252 5.665-4.145c-16.84-2.924-35.814-1.243-54.601 4.962 17.832-2.086 34.648-2.647 48.936-0.817" fill="#fff" fill-rule="nonzero"/> </g> <g transform="translate(468.77 260.65)"> <path d="m0 41.236c9.477-10.324 18.953-20.647 28.429-30.971-9.476 13.483-18.952 26.965-28.429 40.448v-9.477zm-2.316-0.495v36.477c23.306-37.733 46.615-75.466 69.921-113.2-23.306 25.574-46.615 51.149-69.921 76.723" fill="#272613" fill-rule="nonzero"/> </g> <g transform="matrix(.43869 .89864 .89864 -.43869 482.12 286.35)"> <path d="m38.579-24.097c0.213 28.381 0.425 56.762 0.637 85.145-0.212 0.238-0.424 0.477-0.637 0.715-2.028-25.3-4.056-50.599-6.083-75.899 2.028-3.32 4.055-6.641 6.083-9.961" fill="#272613" fill-rule="nonzero"/> </g> <g transform="translate(416.18 318.04)"> <path d="m0-0.663c0.042 0.221 0.085 0.441 0.127 0.663 0.093-0.136 0.189-0.268 0.28-0.403-0.136-0.087-0.271-0.174-0.407-0.26" fill="#272613" fill-rule="nonzero"/> </g> <g transform="translate(390.36 243.1)"> <path d="m0 13.117c12.195 3.822 24.39 7.644 36.585 11.466-1.464 0.925-2.928 1.849-4.392 2.774-10.731-4.747-21.462-9.493-32.193-14.24m-74.113-30.78c-0.255 0.402-0.512 0.803-0.76 1.207 35.67 15.745 71.339 31.49 107.01 47.236 3.828-2.563 7.658-5.127 11.486-7.69-39.245-13.585-78.489-27.169-117.73-40.753" fill="#272613" fill-rule="nonzero"/> </g> <g transform="translate(309.97 286.44)"> <path d="m0-49.143-9.511-6.43c-2.252 7.945-4.421 18.763-4.483 31.667-0.059 12.333 1.825 22.699 3.813 30.336-0.229-14.887 1.637-32.144 8.1-50.173 0.664-1.85 1.363-3.641 2.081-5.4" fill="#fff" fill-rule="nonzero"/> </g> <g transform="translate(444.69 420.93)"> <path d="m0-79.42c2.915 1.275 5.828 2.55 8.743 3.825-0.121 25.198-0.242 50.397-0.363 75.595-2.794-26.473-5.586-52.946-8.38-79.42" fill="#b2b935" fill-rule="nonzero"/> </g> <g transform="translate(456.35 459.26)"> <path d="M0,65.5C34.696,43.666 69.39,21.833 104.086,0L144.514,0C96.342,21.833 48.172,43.666 0,65.5" fill="#272613" fill-rule="nonzero"/> </g> <g transform="translate(454.71 216.55)"> <path d="M0,67.217C2.915,68.249 5.829,69.281 8.744,70.313C33.152,45.843 57.562,21.374 81.971,-3.096C54.647,20.342 27.324,43.78 0,67.217" fill="#b2b935" fill-rule="nonzero"/> </g> <g transform="translate(413.54 248.7)"> <path d="m0 33.617c-25.32-12.083-50.64-24.167-75.96-36.25 23.942 12.961 47.883 25.922 71.825 38.883 1.379-0.878 2.757-1.755 4.135-2.633" fill="#b2b935" fill-rule="nonzero"/> </g> <g transform="translate(466.73 325.2)"> <path d="M0,21.229C19.724,12.028 39.446,2.826 59.171,-6.375C39.446,4.951 19.724,16.278 0,27.604L0,21.229Z" fill="#b2b935" fill-rule="nonzero"/> </g> <g transform="matrix(-.95007 -.31204 -.31204 .95007 519.9 367.13)"> <path d="m-15.522-128.97c-1.488-0.374-17.972 34.023-15.178 76.848 2.049 31.417 13.726 55.911 15.178 55.534 1.506-0.39-8.669-27.361-8.818-66.551-0.152-39.717 10.096-65.51 8.818-65.831" fill="#d1d3d4" fill-rule="nonzero"/> </g> <g transform="matrix(-.99836 -.057225 -.057225 .99836 375.96 410.32)"> <path d="m-26.482-115.14c1.017-0.551 23.632 22.662 24.577 55.051 1.009 34.582-23.253 60.207-24.577 59.531-1.327-0.677 20.724-27.633 18.281-64.271-1.992-29.904-19.205-49.81-18.281-50.311" fill="#d1d3d4" fill-rule="nonzero"/> </g> <g transform="matrix(-.53375 -.84564 -.84564 .53375 302.86 183.1)"> <path d="m-37.251-66.657c0.867-0.253 12.139 20.471 11.156 47.026-0.842 22.762-10.335 40.246-11.156 40-0.784-0.235 6.641-16.534 7.274-40.35 0.731-27.505-8.095-46.437-7.274-46.676" fill="#d1d3d4" fill-rule="nonzero"/> </g> <g transform="matrix(-.84808 -.52987 -.52987 .84808 419.87 277.99)"> <path d="m-12.334-47.959c-0.749-0.294-9.014 11.033-9.058 25.732-0.045 14.848 8.32 26.353 9.058 26.065 0.68-0.265-5.432-10.407-5.506-25.563-0.076-15.495 6.212-25.958 5.506-26.234" fill="#d1d3d4" fill-rule="nonzero"/> </g> <g transform="translate(436.3 253.07)"> <path d="m0-53.363c-2.723-0.882-5.623-1.371-8.64-1.371-3.496 0-6.832 0.669-9.92 1.839-10.589 4.011-18.13 14.219-18.13 26.214 0 15.493 12.558 28.052 28.05 28.052 8.692 0 16.456-3.954 21.602-10.158 3.676-4.432 5.982-10.022 6.362-16.135 0.037-0.585 0.09-1.165 0.09-1.759 0-12.477-8.152-23.038-19.414-26.682" fill="#c2d838" fill-rule="nonzero"/> </g> <g transform="matrix(-.94854 .31666 .31666 .94854 460.16 240.35)"> <path d="m24.478-47.074c-2.12-1.871-20.211 7.04-21.28 21.521-1.169 15.821 18.787 27.324 21.28 25.426 2.118-1.614-8.861-12.532-6.919-28.392 1.386-11.332 8.399-17.249 6.919-18.555" fill="#b2b935" fill-rule="nonzero"/> </g> </g> </g> </svg>